:FULLY-SPECIFIED
:FORCE-ALL-JOINTS-BE-3DOF
:DEGREES
81
root 9.31218 16.3883 -25.5435 4.03022 -7.92413 2.45027
lfemur -16.2208 3.10651 -27.1639
ltibia 27.4544 0 0
lfoot -14.8944 9.40915 0
ltoes -1.27744 0 0
rfemur -21.4408 0.231447 17.8322
rtibia 62.2546 0 0
rfoot -15.2151 -12.3858 0
rtoes -11.9968 0 0
lowerback -4.85172 -0.983925 -3.69868
upperback -1.44614 -1.17358 2.45842
thorax 1.35665 -0.593259 4.54876
lowerneck -22.4003 -4.07521 -11.4867
upperneck 19.3 -4.66425 11.7266
head 10.4441 -1.6206 5.42873
lclavicle -1.89549e-14 2.65043e-16 0
lhumerus -27.8512 -12.3953 87.3094
lradius 25.8741 0 0
lwrist 0.597499 0 0
lhand -2.75878 -17.613 0
lfingers 7.12502 0 0
lthumb 22.9379 10.9566 0
rclavicle -1.89549e-14 2.65043e-16 0
rhumerus -43.6854 13.4835 -89.0737
rradius 40.1219 0 0
rwrist -21.9795 0 0
rhand -30.9537 -23.8543 0
rfingers 7.12502 0 0
rthumb -4.23845 -53.7919 0
82
root 9.3196 16.3801 -25.4302 3.96386 -7.71189 2.56351
lfemur -15.6602 2.91861 -27.349
ltibia 27.375 0 0
lfoot -15.1734 9.42214 0
ltoes -1.8344 0 0
rfemur -22.3772 0.55329 17.8536
rtibia 61.6752 0 0
rfoot -15.9301 -12.5172 0
rtoes -11.904 0 0
lowerback -4.91439 -1.03269 -3.80602
upperback -1.36763 -1.23098 2.44453
thorax 1.48075 -0.626669 4.59009
lowerneck -22.5274 -4.11935 -11.5851
upperneck 19.4593 -4.69778 11.7525
head 10.5331 -1.63732 5.45665
lclavicle -1.88907e-14 -1.19271e-15 0
lhumerus -27.2264 -12.9035 87.2425
lradius 26.4638 0 0
lwrist 1.24932 0 0
lhand -4.60934 -19.0277 0
lfingers 7.12502 0 0
lthumb 21.1606 9.74272 0
rclavicle -1.88907e-14 -1.19271e-15 0
rhumerus -43.6325 13.4741 -88.9603
rradius 40.0582 0 0
rwrist -21.9626 0 0
rhand -30.9684 -23.9109 0
rfingers 7.12502 0 0
rthumb -4.25267 -53.8483 0
83
root 9.32702 16.3719 -25.3169 3.8975 -7.49965 2.67675
lfemur -15.0997 2.7307 -27.5342
ltibia 27.2956 0 0
lfoot -15.4524 9.43512 0
ltoes -2.39137 0 0
rfemur -23.3135 0.875133 17.875
rtibia 61.0957 0 0
rfoot -16.6451 -12.6485 0
rtoes -11.8113 0 0
lowerback -4.97706 -1.08145 -3.91335
upperback -1.28912 -1.28838 2.43063
thorax 1.60485 -0.660079 4.63143
lowerneck -22.6545 -4.16349 -11.6835
upperneck 19.6185 -4.7313 11.7784
head 10.6221 -1.65405 5.48458
lclavicle -1.88266e-14 -2.65046e-15 0
lhumerus -26.6016 -13.4117 87.1757
lradius 27.0534 0 0
lwrist 1.90115 0 0
lhand -6.45989 -20.4424 0
lfingers 7.12502 0 0
lthumb 19.3833 8.52883 0
rclavicle -1.88266e-14 -2.65046e-15 0
rhumerus -43.5796 13.4646 -88.8469
rradius 39.9945 0 0
rwrist -21.9457 0 0
rhand -30.9832 -23.9675 0
rfingers 7.12502 0 0
rthumb -4.2669 -53.9046 0
84
root 9.33443 16.3637 -25.2037 3.83113 -7.2874 2.78998
lfemur -14.5391 2.54279 -27.7193
ltibia 27.2163 0 0
lfoot -15.7314 9.4481 0
ltoes -2.94833 0 0
rfemur -24.2499 1.19698 17.8965
rtibia 60.5162 0 0
rfoot -17.3602 -12.7798 0
rtoes -11.7186 0 0
lowerback -5.03973 -1.13021 -4.02069
upperback -1.21061 -1.34577 2.41674
thorax 1.72894 -0.693488 4.67276
lowerneck -22.7816 -4.20762 -11.7819
upperneck 19.7777 -4.76483 11.8044
head 10.7111 -1.67077 5.5125
lclavicle -1.87624e-14 -4.10822e-15 0
lhumerus -25.9769 -13.9198 87.1089
lradius 27.6431 0 0
lwrist 2.55297 0 0
lhand -8.31045 -21.8572 0
lfingers 7.12502 0 0
lthumb 17.6059 7.31493 0
rclavicle -1.87624e-14 -4.10822e-15 0
rhumerus -43.5266 13.4551 -88.7335
rradius 39.9308 0 0
rwrist -21.9287 0 0
rhand -30.9979 -24.0241 0
rfingers 7.12502 0 0
rthumb -4.28113 -53.9609 0
85
root 9.34185 16.3555 -25.0904 3.76477 -7.07516 2.90322
lfemur -13.9785 2.35489 -27.9044
ltibia 27.1369 0 0
lfoot -16.0104 9.46108 0
ltoes -3.5053 0 0
rfemur -25.1862 1.51882 17.9179
rtibia 59.9367 0 0
rfoot -18.0752 -12.9112 0
rtoes -11.6259 0 0
lowerback -5.1024 -1.17897 -4.12802
upperback -1.1321 -1.40317 2.40285
thorax 1.85304 -0.726898 4.71409
lowerneck -22.9087 -4.25176 -11.8803
upperneck 19.9369 -4.79835 11.8303
head 10.8001 -1.68749 5.54042
lclavicle -1.86982e-14 -5.56597e-15 0
lhumerus -25.3521 -14.428 87.0421
lradius 28.2328 0 0
lwrist 3.2048 0 0
lhand -10.161 -23.2719 0
lfingers 7.12502 0 0
lthumb 15.8286 6.10104 0
rclavicle -1.86982e-14 -5.56597e-15 0
rhumerus -43.4737 13.4457 -88.6201
rradius 39.8671 0 0
rwrist -21.9118 0 0
rhand -31.0127 -24.0807 0
rfingers 7.12502 0 0
rthumb -4.29536 -54.0172 0
86
root 9.34819 16.3492 -24.9706 3.75377 -6.72393 2.91684
lfemur -13.3769 2.31238 -27.9608
ltibia 26.8942 0 0
lfoot -16.4014 9.219 0
ltoes -3.16885 0 0
rfemur -25.9466 1.71359 17.8922
rtibia 58.9164 0 0
rfoot -18.5285 -12.8465 0
rtoes -12.4232 0 0
lowerback -5.21192 -1.24249 -4.10356
upperback -1.13521 -1.48578 2.4141
thorax 1.91999 -0.769612 4.70356
lowerneck -22.693 -4.32812 -12.0179
upperneck 19.9748 -4.8851 11.8189
head 10.7895 -1.74589 5.54591
lclavicle -1.73481e-14 -3.18055e-15 0
lhumerus -24.9794 -14.9387 87.0744
lradius 28.7879 0 0
lwrist 3.75279 0 0
lhand -10.5009 -23.4264 0
lfingers 7.12502 0 0
lthumb 15.5011 5.97071 0
rclavicle -1.73481e-14 -3.18055e-15 0
rhumerus -43.6028 13.342 -88.5115
rradius 39.7728 0 0
rwrist -21.8539 0 0
rhand -30.8228 -23.8793 0
rfingers 7.12502 0 0
rthumb -4.11196 -53.8191 0
